<svg xmlns="http://www.w3.org/2000/svg" width="24" height="24" fill="#fff">
    <path d="M16.01 9.063a1.063 1.063 0 1 1 0-2.125 1.063 1.063 0 0 1 0 2.125zm-3.992.643a2.31 2.31 0 0 0-2.312 2.31 2.31 2.31 0 0 0 2.312 2.31 2.31 2.31 0 0 0 2.313-2.31 2.31 2.31 0 0 0-2.31-2.31zm0-1.75a4.06 4.06 0 0 1 4.063 4.06 4.06 4.06 0 0 1-4.06 4.06 4.06 4.06 0 0 1-4.06-4.06 4.06 4.06 0 0 1 4.06-4.06zM8.782 5.8c-.607.027-1.012.108-1.387.254-.33.127-.56.277-.813.528a2.2 2.2 0 0 0-.528.813c-.146.375-.227.78-.255 1.387-.05.903-.05 1.22-.05 3.218s0 2.315.04 3.218c.02.607.11 1.012.25 1.387a2 2 0 0 0 .53.813c.25.25.48.4.81.528.37.146.78.227 1.39.255.9.05 1.22.05 3.21.05s2.31 0 3.22-.04c.6-.02 1.01-.11 1.38-.25a2 2 0 0 0 .813-.53 2.2 2.2 0 0 0 .526-.81c.15-.37.23-.78.257-1.39.04-.9.046-1.22.046-3.21s-.007-2.31-.048-3.22c-.03-.6-.11-1.01-.256-1.38a2.175 2.175 0 0 0-.53-.813 2.175 2.175 0 0 0-.815-.526c-.37-.15-.78-.23-1.382-.257-.902-.04-1.22-.046-3.216-.046s-2.314.007-3.218.048zm-.08-1.75c.854-.038 1.126-.047 3.298-.047s2.444.01 3.297.048c.852.04 1.433.18 1.942.38a3.92 3.92 0 0 1 1.41.93c.44.45.72.89.92 1.42.19.51.33 1.09.37 1.947.04.853.05 1.125.05 3.297s-.01 2.44-.05 3.295c-.04.85-.18 1.433-.37 1.94a3.92 3.92 0 0 1-.93 1.417 3.92 3.92 0 0 1-1.42.92c-.51.197-1.09.33-1.947.37-.853.04-1.125.05-3.297.05S9.54 20 8.69 19.96c-.85-.04-1.434-.173-1.94-.37a3.92 3.92 0 0 1-1.418-.923 3.92 3.92 0 0 1-.92-1.417c-.197-.51-.33-1.09-.37-1.943C4.01 14.447 4 14.175 4 12s.01-2.444.05-3.297c.037-.852.173-1.433.37-1.942a3.92 3.92 0 0 1 .923-1.41 3.92 3.92 0 0 1 1.417-.92c.51-.19 1.09-.33 1.94-.37z" fill-rule="evenodd"></path>
</svg>
      