<svg xmlns="http://www.w3.org/2000/svg" width="24" height="24" fill="#fff">
  <path d="M8.81829 19C15.3201 19 18.8763 13.6133 18.8763 8.94201C18.8763 8.78901 18.8763 8.6367 18.8659 8.48508C19.5578 7.98467 20.155 7.36507 20.6296 6.65529C19.9844 6.94116 19.3 7.12864 18.5992 7.21146C19.3372 6.76968 19.8895 6.07484 20.1533 5.25624C19.4594 5.668 18.7003 5.95819 17.9087 6.11428C17.3757 5.54755 16.6708 5.17227 15.903 5.04653C15.1353 4.92078 14.3475 5.05158 13.6616 5.41867C12.9757 5.78576 12.4298 6.36868 12.1086 7.07723C11.7873 7.78579 11.7086 8.58046 11.8845 9.33829C10.4791 9.26784 9.10416 8.90261 7.84904 8.26632C6.59393 7.63004 5.48665 6.73692 4.59909 5.64494C4.14704 6.42314 4.00859 7.34438 4.21192 8.22108C4.41525 9.09778 4.94507 9.86402 5.69352 10.3638C5.13096 10.3471 4.58067 10.1954 4.08909 9.92134C4.08909 9.93582 4.08909 9.95098 4.08909 9.96614C4.08931 10.7823 4.37184 11.5732 4.88874 12.2048C5.40564 12.8364 6.1251 13.2698 6.92509 13.4314C6.40467 13.5733 5.85863 13.5941 5.32894 13.492C5.55482 14.1944 5.9946 14.8087 6.58675 15.2488C7.1789 15.689 7.89382 15.933 8.63152 15.9469C7.37977 16.9307 5.83346 17.4647 4.2414 17.4631C3.96014 17.4626 3.67916 17.4455 3.3999 17.4121C5.01648 18.4495 6.89746 18.9998 8.81829 18.9972"></path>
</svg>
      