<svg xmlns="http://www.w3.org/2000/svg" width="30" height="24" fill="#fff">
  <path d="M25.1953 6.84194C24.9509 5.92016 24.2287 5.19435 23.313 4.94758C21.6533 4.5 14.9953 4.5 14.9953 4.5C14.9953 4.5 8.33719 4.5 6.67752 4.94758C5.76179 5.19435 5.03961 5.92016 4.79526 6.84194C4.3501 8.51371 4.3501 12 4.3501 12C4.3501 12 4.3501 15.4863 4.79526 17.1581C5.03961 18.0798 5.76179 18.8056 6.67752 19.0524C8.33719 19.5 14.9953 19.5 14.9953 19.5C14.9953 19.5 21.6533 19.5 23.313 19.0524C24.2287 18.8056 24.9509 18.0798 25.1953 17.1581C25.6404 15.4863 25.6404 12 25.6404 12C25.6404 12 25.6404 8.51371 25.1953 6.84194ZM12.8178 15.1657V8.83427L18.3824 12L12.8178 15.1657Z"></path>
</svg>
      